<svg width="33" height="34" viewBox="0 0 33 34" fill="none" xmlns="http://www.w3.org/2000/svg">
<path d="M16.4287 0.552246C7.46871 0.552246 0.178711 7.84225 0.178711 16.8022C0.178711 25.7622 7.46871 33.0522 16.4287 33.0522C25.3887 33.0522 32.6787 25.7622 32.6787 16.8022C32.6787 7.84225 25.3887 0.552246 16.4287 0.552246ZM16.4287 3.05225C24.0375 3.05225 30.1787 9.1935 30.1787 16.8022C30.1787 24.411 24.0375 30.5522 16.4287 30.5522C8.81996 30.5522 2.67871 24.411 2.67871 16.8022C2.67871 9.1935 8.81996 3.05225 16.4287 3.05225ZM16.4287 7.896L15.5287 8.796L8.42121 15.9035L10.1787 17.7022L15.1787 12.7022V25.5522H17.6787V12.7022L22.6787 17.7022L24.4362 15.9022L17.3275 8.79475L16.4275 7.89475L16.4287 7.896Z" fill="white"/>
</svg>
