<svg width="11" height="15" viewBox="0 0 11 15" fill="none" xmlns="http://www.w3.org/2000/svg">
<path fill-rule="evenodd" clip-rule="evenodd" d="M6.50581 13.9933C6.50581 13.9933 5.84762 14.6973 5.5 14.6973C5.15238 14.6973 4.49419 13.9933 4.49419 13.9933C4.49419 13.9933 0 9.21663 0 6.20113C0 3.16062 2.46263 0.697266 5.5 0.697266C8.53737 0.697266 11 3.1613 11 6.20045C11 9.21596 6.50581 13.9933 6.50581 13.9933ZM4.78981 3.35458C5.24863 3.1909 5.75137 3.1909 6.21019 3.35458L7.82031 3.93241C8.19225 4.06622 8.42188 4.39196 8.42188 4.75218C8.42188 5.11239 8.19225 5.43813 7.82031 5.57194L7.73438 5.60236V7.2527C7.73438 7.70753 7.4635 8.15087 6.99188 8.32185C6.63025 8.45296 6.03556 8.63813 5.5 8.63813C4.96444 8.63813 4.36975 8.45296 4.00812 8.32185C3.5365 8.15087 3.26562 7.70753 3.26562 7.2527V5.60236L3.17969 5.57194C2.80775 5.43813 2.57812 5.11239 2.57812 4.75218C2.57812 4.39196 2.80775 4.06622 3.17969 3.93241L4.78981 3.35458Z" fill="white"/>
<path fill-rule="evenodd" clip-rule="evenodd" d="M5.16487 4.75776C5.38145 4.6771 5.61855 4.6771 5.83513 4.75776L7 5.19727L5.83513 5.63677C5.61855 5.71743 5.38145 5.71743 5.16487 5.63677L4 5.19727L5.16487 4.75776Z" fill="white"/>
<path d="M4 7.24718V5.69727L4.61457 5.91167C5.1866 6.10987 5.8134 6.10987 6.38543 5.91167L7 5.69727V7.24718C7 7.33311 6.95114 7.3773 6.91429 7.39039C6.48486 7.54178 5.92514 7.69727 5.5 7.69727C5.07486 7.69727 4.51514 7.54178 4.08571 7.39039C4.04886 7.3773 4 7.33311 4 7.24718Z" fill="white"/>
</svg>
