<svg width="13" height="15" viewBox="0 0 13 15" fill="none" xmlns="http://www.w3.org/2000/svg">
<path d="M1.5 6.5V6H1V6.5H1.5ZM5.5 6.5V6H5V6.5H5.5ZM5.5 10.5H5V11H5.5V10.5ZM12.5 3.5H13V3.293L12.854 3.146L12.5 3.5ZM9.5 0.5L9.854 0.146L9.707 0H9.5V0.5ZM1.5 7H2.5V6H1.5V7ZM2 11V8.5H1V11H2ZM2 8.5V6.5H1V8.5H2ZM2.5 8H1.5V9H2.5V8ZM3 7.5C3 7.63261 2.94732 7.75979 2.85355 7.85355C2.75979 7.94732 2.63261 8 2.5 8V9C2.89782 9 3.27936 8.84196 3.56066 8.56066C3.84196 8.27936 4 7.89782 4 7.5H3ZM2.5 7C2.63261 7 2.75979 7.05268 2.85355 7.14645C2.94732 7.24021 3 7.36739 3 7.5H4C4 7.10218 3.84196 6.72064 3.56066 6.43934C3.27936 6.15804 2.89782 6 2.5 6V7ZM5 6.5V10.5H6V6.5H5ZM5.5 11H6.5V10H5.5V11ZM8 9.5V7.5H7V9.5H8ZM6.5 6H5.5V7H6.5V6ZM8 7.5C8 7.10218 7.84196 6.72064 7.56066 6.43934C7.27936 6.15804 6.89782 6 6.5 6V7C6.63261 7 6.75979 7.05268 6.85355 7.14645C6.94732 7.24021 7 7.36739 7 7.5H8ZM6.5 11C6.89782 11 7.27936 10.842 7.56066 10.5607C7.84196 10.2794 8 9.89782 8 9.5H7C7 9.63261 6.94732 9.75979 6.85355 9.85355C6.75979 9.94732 6.63261 10 6.5 10V11ZM9 6V11H10V6H9ZM9.5 7H12V6H9.5V7ZM9.5 9H11V8H9.5V9ZM1 5V1.5H0V5H1ZM12 3.5V5H13V3.5H12ZM1.5 1H9.5V0H1.5V1ZM9.146 0.854L12.146 3.854L12.854 3.146L9.854 0.146L9.146 0.854ZM1 1.5C1 1.36739 1.05268 1.24021 1.14645 1.14645C1.24021 1.05268 1.36739 1 1.5 1V0C1.10218 0 0.720644 0.158035 0.43934 0.43934C0.158035 0.720644 0 1.10218 0 1.5H1ZM0 12V13.5H1V12H0ZM1.5 15H11.5V14H1.5V15ZM13 13.5V12H12V13.5H13ZM11.5 15C11.8978 15 12.2794 14.842 12.5607 14.5607C12.842 14.2794 13 13.8978 13 13.5H12C12 13.6326 11.9473 13.7598 11.8536 13.8536C11.7598 13.9473 11.6326 14 11.5 14V15ZM0 13.5C0 13.8978 0.158035 14.2794 0.43934 14.5607C0.720644 14.842 1.10218 15 1.5 15V14C1.36739 14 1.24021 13.9473 1.14645 13.8536C1.05268 13.7598 1 13.6326 1 13.5H0Z" fill="#E60B3F"/>
</svg>
