<svg width="11" height="15" viewBox="0 0 11 15" fill="none" xmlns="http://www.w3.org/2000/svg">
<path fill-rule="evenodd" clip-rule="evenodd" d="M6.50581 13.7956C6.50581 13.7956 5.84762 14.4995 5.5 14.4995C5.15238 14.4995 4.49419 13.7956 4.49419 13.7956C4.49419 13.7956 0 9.01888 0 6.00338C0 2.96287 2.46263 0.499512 5.5 0.499512C8.53737 0.499512 11 2.96355 11 6.0027C11 9.0182 6.50581 13.7956 6.50581 13.7956ZM4.78981 3.15683C5.24863 2.99314 5.75137 2.99314 6.21019 3.15683L7.82031 3.73465C8.19225 3.86847 8.42188 4.19421 8.42188 4.55442C8.42188 4.91463 8.19225 5.24038 7.82031 5.37419L7.73438 5.4046V7.05495C7.73438 7.50978 7.4635 7.95311 6.99188 8.12409C6.63025 8.2552 6.03556 8.44038 5.5 8.44038C4.96444 8.44038 4.36975 8.2552 4.00812 8.12409C3.5365 7.95311 3.26562 7.50978 3.26562 7.05495V5.4046L3.17969 5.37419C2.80775 5.24038 2.57812 4.91463 2.57812 4.55442C2.57812 4.19421 2.80775 3.86847 3.17969 3.73465L4.78981 3.15683Z" fill="black"/>
<path fill-rule="evenodd" clip-rule="evenodd" d="M5.16487 4.56001C5.38145 4.47935 5.61855 4.47935 5.83513 4.56001L7 4.99951L5.83513 5.43902C5.61855 5.51968 5.38145 5.51968 5.16487 5.43902L4 4.99951L5.16487 4.56001Z" fill="black"/>
<path d="M4 7.04943V5.49951L4.61457 5.71391C5.1866 5.91212 5.8134 5.91212 6.38543 5.71391L7 5.49951V7.04943C7 7.13535 6.95114 7.17954 6.91429 7.19264C6.48486 7.34403 5.92514 7.49951 5.5 7.49951C5.07486 7.49951 4.51514 7.34403 4.08571 7.19264C4.04886 7.17954 4 7.13535 4 7.04943Z" fill="black"/>
</svg>
