<svg width="22" height="26" viewBox="0 0 22 26" fill="none" xmlns="http://www.w3.org/2000/svg">
<path d="M14.2701 17.1709L13.5149 13.949L15.5965 11.3565L15.9094 10.9668L15.4099 10.9501L12.5744 10.8556L11.266 7.51252L11.0332 6.9177L10.8003 7.51252L9.49218 10.8549L6.22829 10.9501L5.66381 10.9666L6.05547 11.3734L8.53787 13.9518L7.82468 17.1739L7.70542 17.7127L8.18911 17.447L11.0337 15.8849L13.9072 17.4475L14.3974 17.7141L14.2701 17.1709ZM21.3095 4.49818V14.2435C21.2336 15.7014 20.8321 17.1179 20.1394 18.3743C19.4468 19.6305 18.4838 20.6894 17.3322 21.4636L11.0332 25.2091L4.73409 21.4636C3.58249 20.6894 2.61948 19.6305 1.92694 18.3743C1.23424 17.1179 0.832728 15.7014 0.756836 14.2435V4.49816C4.60392 4.44149 8.15613 3.07897 11.0327 0.819618C13.9101 3.09097 17.4627 4.44199 21.3095 4.49818Z" fill="#315FF0" stroke="url(#paint0_linear_1_93)" stroke-width="0.5"/>
<defs>
<linearGradient id="paint0_linear_1_93" x1="0.00347331" y1="2.3332" x2="18.3354" y2="21.1235" gradientUnits="userSpaceOnUse">
<stop stop-color="white"/>
<stop offset="1"/>
</linearGradient>
</defs>
</svg>
