<svg width="10" height="12" viewBox="0 0 10 12" fill="none" xmlns="http://www.w3.org/2000/svg">
<path d="M2.82395 2.4H8.58394V9.12H2.82395V2.4Z" fill="#333333"/>
<path d="M9.55994 6.6C9.5266 7.31871 9.34816 8.01746 9.03959 8.63761C8.73103 9.25775 8.30135 9.78119 7.78661 10.164L4.99994 12L2.21327 10.164C1.69854 9.78119 1.26885 9.25775 0.960288 8.63761C0.651724 8.01746 0.473282 7.31871 0.439941 6.6V1.8C2.15247 1.8 3.73327 1.128 4.99994 0C6.26661 1.134 7.84741 1.8 9.55994 1.8V6.6ZM4.99994 7.248L6.29673 8.0294L5.95754 6.426L6.89233 5.136L5.59274 5.088L4.99994 3.40974L4.40714 5.088L2.92163 5.136L4.03727 6.42L3.71577 8.0294L4.99994 7.248Z" fill="#333333"/>
</svg>
