<svg width="13" height="11" viewBox="0 0 13 11" fill="none" xmlns="http://www.w3.org/2000/svg">
<path d="M1.5 10.8022C1.15625 10.8022 0.862083 10.68 0.6175 10.4354C0.372917 10.1908 0.250417 9.89641 0.25 9.55225V2.05225C0.25 1.7085 0.3725 1.41433 0.6175 1.16975C0.8625 0.925163 1.15667 0.802663 1.5 0.802246H11.5C11.8438 0.802246 12.1381 0.924746 12.3831 1.16975C12.6281 1.41475 12.7504 1.70891 12.75 2.05225V9.55225C12.75 9.896 12.6277 10.1904 12.3831 10.4354C12.1385 10.6804 11.8442 10.8027 11.5 10.8022H1.5ZM6.5 6.42725L11.5 3.30225V2.05225L6.5 5.17725L1.5 2.05225V3.30225L6.5 6.42725Z" fill="black"/>
</svg>
