<svg width="18" height="20" viewBox="0 0 18 20" fill="none" xmlns="http://www.w3.org/2000/svg">
<path d="M17.2073 19.3344L10.341 12.0867C9.7928 12.5797 9.16232 12.9613 8.4496 13.2313C7.73688 13.5014 7.0205 13.6364 6.30047 13.6364C4.54462 13.6364 3.05851 12.9949 1.84214 11.7117C0.625765 10.4277 0.0175781 8.85944 0.0175781 7.00681C0.0175781 5.15419 0.625034 3.58513 1.83995 2.29964C3.05559 1.01337 4.54097 0.370239 6.29609 0.370239C8.05194 0.370239 9.53878 1.01221 10.7566 2.29616C11.9745 3.58012 12.5834 5.14917 12.5834 7.00334C12.5834 7.80735 12.4485 8.58552 12.1788 9.33783C11.9083 10.0901 11.5538 10.7337 11.1152 11.2684L17.9814 18.5149L17.2073 19.3344ZM6.30047 12.4779C7.75515 12.4779 8.98359 11.9493 9.98578 10.8922C10.9872 9.83513 11.488 8.53845 11.488 7.00218C11.488 5.46669 10.9872 4.17039 9.98578 3.11329C8.98432 2.0562 7.75625 1.52765 6.30157 1.52765C4.84689 1.52765 3.61846 2.0562 2.61626 3.11329C1.6148 4.17039 1.11407 5.46669 1.11407 7.00218C1.11407 8.53767 1.6148 9.83397 2.61626 10.8911C3.61772 11.9482 4.84579 12.4779 6.30047 12.4779ZM5.75223 9.7626V7.58204H3.68644V6.42464H5.75223V4.24292H6.84872V6.42464H8.9156V7.58204H6.84872V9.76376L5.75223 9.7626Z" fill="#315FF0"/>
</svg>
