<svg width="13" height="12" viewBox="0 0 13 12" fill="none" xmlns="http://www.w3.org/2000/svg">
<path d="M3.1375 5.046C4.0375 6.81475 5.4875 8.2585 7.25625 9.16475L8.63125 7.78975C8.8 7.621 9.05 7.56475 9.26875 7.63975C9.96875 7.871 10.725 7.996 11.5 7.996C11.8438 7.996 12.125 8.27725 12.125 8.621V10.8022C12.125 11.146 11.8438 11.4272 11.5 11.4272C5.63125 11.4272 0.875 6.671 0.875 0.802246C0.875 0.458496 1.15625 0.177246 1.5 0.177246H3.6875C4.03125 0.177246 4.3125 0.458496 4.3125 0.802246C4.3125 1.5835 4.4375 2.3335 4.66875 3.0335C4.7375 3.25225 4.6875 3.496 4.5125 3.671L3.1375 5.046Z" fill="black"/>
</svg>
