<svg width="18" height="18" viewBox="0 0 18 18" fill="none" xmlns="http://www.w3.org/2000/svg">
<path fill-rule="evenodd" clip-rule="evenodd" d="M7.81734 0.0415505H7.80067C7.70567 0.0415505 7.63234 0.0415505 7.56234 0.0457171C7.12936 0.0720377 6.71275 0.220702 6.36092 0.47443C6.0091 0.728159 5.73651 1.07653 5.57484 1.47905C5.549 1.54322 5.52567 1.61238 5.49567 1.70322L5.49067 1.71905L5.469 1.78322C5.46121 1.80692 5.45315 1.83053 5.44484 1.85405C5.3115 2.22238 4.869 2.52988 4.40067 2.54155L2.884 2.61655C2.229 2.69322 1.66817 2.85655 1.194 3.24238C1.02842 3.37712 0.87707 3.52846 0.742337 3.69405C0.356504 4.16905 0.192337 4.72905 0.115671 5.38488C0.0415039 6.01822 0.0415039 6.81405 0.0415039 7.80155V7.86655C0.0415039 8.10322 0.0415039 8.32488 0.0606706 8.51155C0.0815039 8.71822 0.129837 8.93822 0.260671 9.14988C0.407357 9.38516 0.62132 9.57096 0.874837 9.68322C0.877337 11.0299 0.894837 12.3899 1.01567 13.5549C1.0865 14.2382 1.19484 14.8791 1.36734 15.4257C1.5365 15.9632 1.7865 16.4724 2.18317 16.8241C2.869 17.4341 3.73317 17.7032 4.81067 17.8324C5.869 17.9582 7.22567 17.9582 8.95734 17.9582H9.04234C10.774 17.9582 12.1307 17.9582 13.189 17.8316C14.2665 17.7032 15.1307 17.4341 15.8165 16.8241C16.2132 16.4724 16.4632 15.9632 16.6332 15.4257C16.8048 14.8791 16.9132 14.2382 16.984 13.5549C17.1048 12.3899 17.1223 11.0299 17.1248 9.68322C17.378 9.57082 17.5917 9.38503 17.7382 9.14988C17.8698 8.93822 17.9182 8.71822 17.939 8.51155C17.9582 8.32488 17.9582 8.10322 17.9582 7.86655V7.80155C17.9582 6.81405 17.9582 6.01822 17.8832 5.38488C17.8065 4.72905 17.6432 4.16822 17.2573 3.69405C17.1226 3.52847 16.9713 3.37712 16.8057 3.24238C16.3307 2.85655 15.7707 2.69238 15.1148 2.61572L13.5998 2.54155C13.1315 2.52988 12.689 2.22238 12.5557 1.85405C12.5473 1.83053 12.5393 1.80692 12.5315 1.78322L12.5048 1.70238C12.4748 1.61322 12.4523 1.54322 12.4257 1.47822C12.2639 1.07585 11.9912 0.727655 11.6394 0.474081C11.2876 0.220508 10.8711 0.0719668 10.4382 0.0457171C10.3591 0.0419872 10.2799 0.0405977 10.2007 0.0415505H7.81734ZM5.309 3.79155H12.6915C13.7098 3.79155 14.4232 3.79322 14.969 3.85738C15.5073 3.92072 15.8015 4.03738 16.0165 4.21238C16.1165 4.29322 16.2065 4.38405 16.2873 4.48322C16.4623 4.69822 16.579 4.99238 16.6423 5.53072C16.7073 6.08238 16.7082 6.80488 16.7082 7.84072C16.7082 8.11238 16.7082 8.26988 16.6957 8.38572C16.6936 8.4211 16.6872 8.45608 16.6765 8.48988C16.6706 8.49958 16.6639 8.50878 16.6565 8.51738C16.627 8.5374 16.5951 8.55363 16.5615 8.56572C16.454 8.61072 16.3032 8.65655 16.0432 8.73405L11.7082 10.0349V9.83322C11.7082 9.25822 11.2415 8.79155 10.6665 8.79155H7.33317C6.75817 8.79155 6.2915 9.25822 6.2915 9.83322V10.0349L1.9565 8.73488C1.7813 8.68621 1.60835 8.62977 1.43817 8.56572C1.40462 8.55362 1.37271 8.53738 1.34317 8.51738L6.2915 10.0349L1.32317 8.48988C1.31246 8.4561 1.30602 8.4211 1.304 8.38572C1.29181 8.20432 1.28764 8.02248 1.2915 7.84072C1.2915 6.80488 1.29234 6.08238 1.35734 5.53072C1.42067 4.99238 1.53734 4.69822 1.71234 4.48322C1.79313 4.38393 1.88388 4.29318 1.98317 4.21238C2.19817 4.03738 2.49234 3.92072 3.03067 3.85738C3.5765 3.79322 4.28984 3.79155 5.309 3.79155ZM7.8165 1.29155C7.69734 1.29155 7.664 1.29155 7.63734 1.29322C7.44053 1.30521 7.25116 1.37281 7.09125 1.48817C6.93134 1.60353 6.80746 1.7619 6.734 1.94488C6.71301 2.00073 6.69355 2.05714 6.67567 2.11405L6.6515 2.18488L6.61984 2.27905C6.5865 2.37072 6.54817 2.45738 6.50317 2.54155H11.4948C11.4344 2.42754 11.3847 2.30813 11.3465 2.18488L11.3232 2.11405C11.3052 2.05718 11.2857 2.00077 11.2648 1.94488C11.1913 1.76178 11.0673 1.60332 10.9072 1.48795C10.7472 1.37259 10.5576 1.30505 10.3607 1.29322C10.301 1.29113 10.2412 1.29057 10.1815 1.29155H7.8165ZM2.1265 10.0907C2.13234 11.2882 2.1565 12.4382 2.259 13.4266C2.32567 14.0682 2.42234 14.6157 2.559 15.0499C2.699 15.4916 2.86067 15.7541 3.01317 15.8899C3.42567 16.2566 3.99484 16.4757 4.959 16.5899C5.934 16.7066 7.2165 16.7082 8.99984 16.7082C10.7832 16.7082 12.0648 16.7074 13.0407 16.5907C14.0048 16.4757 14.574 16.2557 14.9865 15.8899C15.139 15.7541 15.3007 15.4916 15.4407 15.0499C15.5773 14.6166 15.674 14.0682 15.7407 13.4266C15.8432 12.4382 15.8673 11.2874 15.8732 10.0907L11.7082 11.3399V11.6349C11.7082 12.0599 11.449 12.4432 11.0532 12.6016L10.4698 12.8349C9.52618 13.2123 8.4735 13.2123 7.52984 12.8349L6.9465 12.6016C6.75325 12.5243 6.58757 12.3909 6.47082 12.2186C6.35408 12.0463 6.29162 11.843 6.2915 11.6349V11.3399L2.1265 10.0907ZM7.5415 10.0416V11.4932L7.994 11.6741C8.63984 11.9324 9.36067 11.9324 10.0057 11.6741L10.4582 11.4932V10.0416H7.5415Z" fill="#315FF0"/>
</svg>
