<svg width="22" height="18" viewBox="0 0 22 18" fill="none" xmlns="http://www.w3.org/2000/svg">
<path d="M11 13.7239C11 13.4397 11.0748 13.1605 11.2169 12.9143C11.3589 12.6681 11.5632 12.4636 11.8093 12.3213L20.73 7.16474C20.8121 7.11728 20.8803 7.04906 20.9277 6.96692C20.9751 6.88478 21 6.79162 21 6.69678C21 6.60195 20.9751 6.50879 20.9277 6.42665C20.8803 6.34451 20.8121 6.27628 20.73 6.22882L11.8093 1.07228C11.7273 1.02495 11.6343 1.00002 11.5396 1C11.445 0.999976 11.352 1.02486 11.27 1.07214C11.188 1.11943 11.1199 1.18746 11.0725 1.2694C11.0251 1.35134 11.0001 1.4443 11 1.53896M11 13.7239V16.0481M11 13.7239C11 13.4397 10.9252 13.1605 10.7831 12.9143C10.6411 12.6681 10.4368 12.4636 10.1907 12.3213L1.27001 7.16474C1.1879 7.11728 1.11974 7.04906 1.07234 6.96692C1.02495 6.88478 1 6.79162 1 6.69678C1 6.60195 1.02495 6.50879 1.07234 6.42665C1.11974 6.34451 1.1879 6.27628 1.27001 6.22882L10.1907 1.07228C10.2727 1.02495 10.3657 1.00002 10.4604 1C10.555 0.999976 10.648 1.02486 10.73 1.07214C10.812 1.11943 10.8801 1.18746 10.9275 1.2694C10.9749 1.35134 10.9999 1.4443 11 1.53896M11 16.0481C11.0001 16.1427 11.0251 16.2357 11.0725 16.3176C11.1199 16.3996 11.188 16.4676 11.27 16.5149C11.352 16.5622 11.445 16.587 11.5396 16.587C11.6343 16.587 11.7273 16.5621 11.8093 16.5147L15.5376 14.3598C15.7837 14.2176 15.9881 14.0131 16.1302 13.7669C16.2723 13.5207 16.3472 13.2415 16.3473 12.9572V10.5812C16.3473 10.2969 16.2725 10.0175 16.1303 9.77124C15.9882 9.52495 15.7838 9.3204 15.5376 9.17813L11.8093 7.0232C11.5631 6.88087 11.3588 6.67629 11.2168 6.43C11.0747 6.18372 11 5.9044 11 5.62009M11 16.0481C10.9999 16.1427 10.9749 16.2357 10.9275 16.3176C10.8801 16.3996 10.812 16.4676 10.73 16.5149C10.648 16.5622 10.555 16.587 10.4604 16.587C10.3657 16.587 10.2727 16.5621 10.1907 16.5147L6.46245 14.3598C6.21631 14.2176 6.01192 14.0131 5.86978 13.7669C5.72765 13.5207 5.65278 13.2415 5.65268 12.9572V10.5812C5.65269 10.2969 5.72752 10.0175 5.86966 9.77124C6.01179 9.52495 6.21624 9.3204 6.46245 9.17813L10.1907 7.0232C10.4369 6.88087 10.6412 6.67629 10.7832 6.43C10.9253 6.18372 11 5.9044 11 5.62009M11 5.62009V1.53896" stroke="#315FF0" stroke-width="1.2" stroke-linecap="round" stroke-linejoin="round"/>
</svg>
